<svg width="13" height="14" viewBox="0 0 13 14" fill="none" xmlns="http://www.w3.org/2000/svg">
<path fill-rule="evenodd" clip-rule="evenodd" d="M10.6269 0.531879C11.718 0.293813 12.7499 1.12486 12.7499 2.24166V3.77438C12.7499 4.6131 12.1549 5.33389 11.3313 5.49271L11.2217 5.51386C12.0835 5.62281 12.75 6.35855 12.75 7.24995V11.9999C12.75 12.9664 11.9665 13.7499 11 13.7499H2.00005C1.03356 13.7499 0.250061 12.9665 0.250052 12L0.25 4.20529C0.25 3.38254 0.823117 2.6709 1.62696 2.49551L10.6269 0.531879ZM3.37277 5.49995L11.0473 4.01986C11.1649 3.99717 11.2499 3.8942 11.2499 3.77438V2.24166C11.2499 2.08211 11.1025 1.96339 10.9466 1.9974L1.94671 3.96104C1.83187 3.98609 1.75 4.08775 1.75 4.20529V5.49995H3.37277ZM1.75001 6.99995L1.75005 12C1.75005 12.138 1.86198 12.2499 2.00005 12.2499H11C11.1381 12.2499 11.25 12.138 11.25 11.9999V7.24995C11.25 7.11188 11.1381 6.99995 11 6.99995H1.75001Z" fill="black"/>
</svg>
