<svg width="26" height="27" viewBox="0 0 26 27" fill="none" xmlns="http://www.w3.org/2000/svg">
<path fill-rule="evenodd" clip-rule="evenodd" d="M25.2 13.5C25.2 20.4588 19.5587 26.1001 12.5999 26.1001C5.64101 26.1001 -0.000244141 20.4588 -0.000244141 13.5C-0.000244141 6.54116 5.64101 0.899902 12.5999 0.899902C19.5587 0.899902 25.2 6.54116 25.2 13.5ZM13.0402 10.1951C11.8128 10.7092 9.36828 11.7688 5.69631 13.3635C5.10879 13.6048 4.79405 13.8356 4.76258 14.0664C4.71612 14.4567 5.20462 14.6083 5.86361 14.8128C5.94865 14.8392 6.03652 14.8665 6.12645 14.8952C6.77692 15.1051 7.63721 15.3464 8.08833 15.3569C8.4975 15.3674 8.94862 15.1995 9.45221 14.8533C12.8829 12.5347 14.6454 11.3597 14.7608 11.3387C14.8448 11.3177 14.9497 11.2967 15.0231 11.3597C15.0965 11.4226 15.0965 11.5485 15.0861 11.58C15.036 11.7885 12.9893 13.6886 12.058 14.5532C11.818 14.776 11.6521 14.93 11.6134 14.9687C11.515 15.07 11.4148 15.1659 11.3185 15.2581C10.7163 15.8345 10.2644 16.2671 11.3406 16.9725C11.8299 17.2956 12.2246 17.5648 12.6132 17.83C13.0829 18.1504 13.5438 18.4648 14.1523 18.861C14.2957 18.9551 14.433 19.0528 14.5669 19.148C15.0895 19.5198 15.5611 19.8553 16.1457 19.8052C16.4814 19.7737 16.8276 19.459 17.006 18.5148C17.4256 16.2906 18.2439 11.4541 18.4328 9.46074C18.4538 9.29288 18.4328 9.07256 18.4118 8.96764C18.3908 8.86273 18.3594 8.72634 18.2335 8.62143C18.0761 8.49553 17.8453 8.47455 17.7404 8.47455C17.2683 8.48504 16.5339 8.73683 13.0402 10.1951Z" fill="white"/>
</svg>
