<svg width="24" height="25" viewBox="0 0 24 25" fill="none" xmlns="http://www.w3.org/2000/svg">
<path fill-rule="evenodd" clip-rule="evenodd" d="M1.68682 2.18707C-0.000244141 3.87413 -0.000244141 6.5894 -0.000244141 12.02V12.98C-0.000244141 18.4106 -0.000244141 21.1259 1.68682 22.813C3.37389 24.5 6.08916 24.5 11.5198 24.5H12.4798C17.9104 24.5 20.6256 24.5 22.3127 22.813C23.9998 21.1259 23.9998 18.4106 23.9998 12.98V12.02C23.9998 6.5894 23.9998 3.87413 22.3127 2.18707C20.6256 0.5 17.9104 0.5 12.4798 0.5H11.5198C6.08916 0.5 3.37389 0.5 1.68682 2.18707ZM4.04982 7.80005C4.17982 14.04 7.29981 17.7901 12.7698 17.7901H13.0799V14.22C15.0899 14.42 16.6098 15.8901 17.2198 17.7901H20.0598C19.2798 14.9501 17.2297 13.3801 15.9497 12.7801C17.2297 12.0401 19.0297 10.24 19.4597 7.80005H16.8797C16.3197 9.78005 14.6599 11.58 13.0799 11.75V7.80005H10.4998V14.72C8.89976 14.3201 6.87981 12.38 6.78981 7.80005H4.04982Z" fill="white"/>
</svg>
