<svg width="13" height="13" viewBox="0 0 13 13" fill="none" xmlns="http://www.w3.org/2000/svg">
<path fill-rule="evenodd" clip-rule="evenodd" d="M6.5 1.75C3.87665 1.75 1.75 3.87665 1.75 6.5C1.75 9.12335 3.87665 11.25 6.5 11.25C9.12335 11.25 11.25 9.12335 11.25 6.5C11.25 3.87665 9.12335 1.75 6.5 1.75ZM0.25 6.5C0.25 3.04822 3.04822 0.25 6.5 0.25C9.95178 0.25 12.75 3.04822 12.75 6.5C12.75 9.95178 9.95178 12.75 6.5 12.75C3.04822 12.75 0.25 9.95178 0.25 6.5Z" fill="black"/>
<path fill-rule="evenodd" clip-rule="evenodd" d="M5.75058 3.55696H7.25058V6.39192L9.39583 8.29428L8.40061 9.41656L5.75058 7.06658V3.55696Z" fill="black"/>
</svg>
