<svg width="13" height="13" viewBox="0 0 13 13" fill="none" xmlns="http://www.w3.org/2000/svg">
<path fill-rule="evenodd" clip-rule="evenodd" d="M0.25 3C0.25 1.48122 1.48122 0.25 3 0.25H10C11.5188 0.25 12.75 1.48122 12.75 3V10C12.75 11.5188 11.5188 12.75 10 12.75H3C1.48122 12.75 0.25 11.5188 0.25 10V3ZM3 1.75C2.30964 1.75 1.75 2.30964 1.75 3V4.375H11.25V3C11.25 2.30964 10.6904 1.75 10 1.75H3ZM11.25 5.875H1.75V10C1.75 10.6904 2.30964 11.25 3 11.25H10C10.6904 11.25 11.25 10.6904 11.25 10V5.875Z" fill="black"/>
</svg>
