<svg width="23" height="29" viewBox="0 0 23 29" fill="none" xmlns="http://www.w3.org/2000/svg">
<path d="M11.7578 7.12199C5.68505 7.12199 0.757812 12.0096 0.757812 18.061C0.757812 24.0968 5.68505 29 11.7578 29C17.8305 29 22.7578 24.0968 22.7578 18.061C22.7735 12.0096 17.8462 7.12199 11.7578 7.12199ZM11.6636 0C10.2828 0 9.16864 1.10166 9.16864 2.48261C9.16864 3.84805 10.2828 4.96522 11.6636 4.96522C13.0445 4.96522 14.1586 3.84805 14.1586 2.48261C14.1586 1.10166 13.0445 0 11.6636 0ZM17.7678 0C16.3869 0 15.2728 1.10166 15.2728 2.48261C15.2728 3.84805 16.3869 4.96522 17.7678 4.96522C19.1487 4.96522 20.2628 3.84805 20.2628 2.48261C20.2785 1.10166 19.1487 0 17.7678 0ZM5.65367 0C4.27279 0 3.15866 1.10166 3.15866 2.48261C3.15866 3.84805 4.27279 4.96522 5.65367 4.96522C7.03455 4.96522 8.14867 3.84805 8.14867 2.48261C8.14867 1.10166 7.03455 0 5.65367 0ZM5.74782 18.061C5.74782 14.7715 8.44681 12.0872 11.7578 12.0872C15.0688 12.0872 17.7678 14.7715 17.7678 18.061C17.7678 21.3505 15.0688 24.0348 11.7578 24.0348C8.44681 24.0348 5.74782 21.3505 5.74782 18.061Z" fill="white"/>
</svg>
